<svg id="svg" version="1.1" xmlns="http://www.w3.org/2000/svg" xmlns:xlink="http://www.w3.org/1999/xlink" width="400" height="400" viewBox="0, 0, 400,400"><g id="svgg"><path id="path0" d="M128.343 88.463 C 124.191 90.871,124.270 96.901,128.483 99.150 C 131.653 100.842,135.076 99.660,136.744 96.297 C 139.348 91.046,133.421 85.519,128.343 88.463 M253.958 103.732 C 248.878 106.012,248.867 112.913,253.941 115.033 C 257.856 116.669,262.400 113.643,262.400 109.400 C 262.400 105.224,257.686 102.060,253.958 103.732 M78.400 119.468 C 67.535 121.195,60.042 133.627,63.977 143.400 C 66.283 149.129,69.671 152.517,75.400 154.823 C 83.864 158.231,94.980 152.945,98.328 143.920 C 103.163 130.888,92.083 117.293,78.400 119.468 M315.200 119.609 C 300.927 122.560,295.569 141.020,306.175 150.706 C 309.782 154.000,316.193 156.458,319.644 155.869 C 323.173 155.267,323.855 155.123,324.600 154.823 C 337.233 149.738,340.981 135.873,332.512 125.559 C 328.715 120.935,321.230 118.363,315.200 119.609 M72.400 200.440 C 65.332 202.297,62.086 204.312,56.876 210.080 C 51.611 215.908,48.215 219.681,43.987 224.400 C 41.720 226.930,38.482 230.530,36.792 232.400 C 27.353 242.840,24.812 245.725,22.287 248.869 C 20.673 250.880,19.102 252.438,18.551 252.577 C 18.028 252.708,17.600 253.048,17.600 253.332 C 17.600 253.617,17.240 254.236,16.800 254.708 C 16.360 255.180,16.000 255.804,16.000 256.095 C 16.000 256.386,15.640 256.883,15.200 257.200 C 14.760 257.517,14.400 257.934,14.400 258.127 C 14.400 258.319,14.019 259.011,13.554 259.665 C 12.183 261.590,8.796 268.469,9.031 268.850 C 9.150 269.042,9.057 269.200,8.824 269.200 C 8.591 269.200,8.400 269.560,8.400 270.000 C 8.400 270.440,8.220 270.800,8.000 270.800 C 7.780 270.800,7.600 271.340,7.600 272.000 C 7.600 272.660,7.420 273.200,7.200 273.200 C 6.980 273.200,6.800 273.560,6.800 274.000 C 6.800 274.440,6.620 274.800,6.400 274.800 C 6.180 274.800,6.000 275.250,6.000 275.800 C 6.000 276.350,5.820 276.800,5.600 276.800 C 5.380 276.800,5.200 277.239,5.200 277.776 C 5.200 278.313,5.020 278.864,4.800 279.000 C 4.580 279.136,4.400 279.777,4.400 280.424 C 4.400 281.071,4.220 281.600,4.000 281.600 C 3.780 281.600,3.600 282.140,3.600 282.800 C 3.600 283.460,3.420 284.000,3.200 284.000 C 2.980 284.000,2.800 284.709,2.800 285.576 C 2.800 286.443,2.620 287.264,2.400 287.400 C 2.180 287.536,2.000 288.267,2.000 289.024 C 2.000 289.781,1.854 290.400,1.675 290.400 C 1.496 290.400,1.305 291.251,1.252 292.291 C 1.198 293.331,0.939 294.314,0.677 294.476 C -0.031 294.914,-0.009 328.864,0.700 329.100 C 1.010 329.203,1.200 330.016,1.200 331.233 C 1.200 332.315,1.380 333.200,1.600 333.200 C 1.820 333.200,2.000 333.920,2.000 334.800 C 2.000 335.680,2.180 336.400,2.400 336.400 C 2.620 336.400,2.800 336.940,2.800 337.600 C 2.800 338.260,2.980 338.800,3.200 338.800 C 3.420 338.800,3.600 339.329,3.600 339.976 C 3.600 340.623,3.780 341.264,4.000 341.400 C 4.220 341.536,4.400 341.997,4.400 342.424 C 4.400 342.851,4.580 343.200,4.800 343.200 C 5.020 343.200,5.200 343.740,5.200 344.400 C 5.200 345.060,5.380 345.600,5.600 345.600 C 5.820 345.600,6.000 345.960,6.000 346.400 C 6.000 346.840,6.180 347.200,6.400 347.200 C 6.620 347.200,6.800 347.740,6.800 348.400 C 6.800 349.060,6.946 349.600,7.125 349.600 C 7.304 349.600,7.709 350.275,8.025 351.100 C 9.104 353.916,11.983 359.199,12.900 360.047 C 13.285 360.403,13.600 360.948,13.600 361.259 C 13.600 361.569,13.960 362.083,14.400 362.400 C 14.840 362.717,15.200 363.225,15.200 363.528 C 15.200 363.831,15.740 364.583,16.400 365.200 C 17.060 365.817,17.600 366.533,17.600 366.792 C 17.600 367.051,18.320 367.954,19.200 368.800 C 20.080 369.646,20.800 370.531,20.800 370.769 C 20.800 371.006,20.980 371.200,21.200 371.200 C 21.420 371.200,21.602 371.425,21.604 371.700 C 21.606 371.975,22.180 372.650,22.880 373.200 C 24.054 374.123,25.138 375.181,26.240 376.481 C 26.925 377.288,29.166 379.200,29.428 379.200 C 29.557 379.200,30.354 379.920,31.200 380.800 C 32.046 381.680,32.949 382.400,33.208 382.400 C 33.467 382.400,34.183 382.940,34.800 383.600 C 35.417 384.260,36.169 384.800,36.472 384.800 C 36.775 384.800,37.283 385.160,37.600 385.600 C 37.917 386.040,38.457 386.400,38.800 386.400 C 39.143 386.400,39.683 386.760,40.000 387.200 C 40.317 387.640,40.882 388.000,41.255 388.000 C 41.628 388.000,41.993 388.135,42.067 388.300 C 42.317 388.863,45.924 390.798,49.100 392.073 C 49.815 392.360,50.400 392.731,50.400 392.898 C 50.400 393.064,50.940 393.200,51.600 393.200 C 52.260 393.200,52.800 393.380,52.800 393.600 C 52.800 393.820,53.160 394.000,53.600 394.000 C 54.040 394.000,54.400 394.180,54.400 394.400 C 54.400 394.620,54.940 394.800,55.600 394.800 C 56.260 394.800,56.800 394.980,56.800 395.200 C 56.800 395.420,57.149 395.600,57.576 395.600 C 58.003 395.600,58.464 395.780,58.600 396.000 C 58.736 396.220,59.377 396.400,60.024 396.400 C 60.671 396.400,61.200 396.580,61.200 396.800 C 61.200 397.020,61.740 397.200,62.400 397.200 C 63.060 397.200,63.600 397.380,63.600 397.600 C 63.600 397.820,64.309 398.000,65.176 398.000 C 66.043 398.000,66.864 398.180,67.000 398.400 C 67.136 398.620,68.032 398.800,68.990 398.800 C 70.029 398.800,70.801 399.002,70.900 399.300 C 71.029 399.689,74.569 399.800,86.800 399.800 C 99.031 399.800,102.570 399.689,102.700 399.300 C 102.800 399.001,103.576 398.800,104.633 398.800 C 105.605 398.800,106.400 398.620,106.400 398.400 C 106.400 398.180,106.940 398.000,107.600 398.000 C 108.260 398.000,108.800 397.820,108.800 397.600 C 108.800 397.380,109.340 397.200,110.000 397.200 C 110.660 397.200,111.200 397.020,111.200 396.800 C 111.200 396.580,111.725 396.400,112.367 396.400 C 113.008 396.400,113.593 396.222,113.667 396.003 C 113.740 395.785,114.295 395.566,114.900 395.516 C 115.505 395.466,116.000 395.285,116.000 395.113 C 116.000 394.941,116.360 394.800,116.800 394.800 C 117.240 394.800,117.600 394.620,117.600 394.400 C 117.600 394.180,117.960 394.000,118.400 394.000 C 118.840 394.000,119.200 393.820,119.200 393.600 C 119.200 393.380,119.560 393.200,120.000 393.200 C 120.440 393.200,120.800 393.020,120.800 392.800 C 120.800 392.580,121.145 392.400,121.567 392.400 C 121.988 392.400,122.393 392.265,122.467 392.100 C 122.540 391.935,123.230 391.484,124.000 391.097 C 124.770 390.710,126.120 389.942,127.000 389.389 C 127.880 388.836,128.870 388.261,129.199 388.111 C 129.528 387.961,130.215 387.421,130.725 386.912 C 131.235 386.402,131.848 386.106,132.088 386.254 C 132.349 386.415,132.409 386.338,132.238 386.062 C 132.081 385.808,132.161 385.600,132.416 385.600 C 132.671 385.600,133.356 385.105,133.940 384.500 C 134.523 383.895,135.491 383.147,136.092 382.837 C 136.898 382.421,137.131 382.055,136.982 381.437 C 136.828 380.794,137.573 379.786,140.190 377.098 C 142.066 375.172,143.600 373.509,143.600 373.402 C 143.600 373.227,144.357 372.241,145.401 371.055 C 148.800 367.198,154.602 356.045,156.356 350.000 C 156.643 349.010,157.040 347.887,157.239 347.505 C 157.438 347.123,157.600 346.369,157.600 345.829 C 157.600 345.289,157.780 344.736,158.000 344.600 C 158.220 344.464,158.400 343.679,158.400 342.856 C 158.400 342.033,158.563 341.189,158.761 340.980 C 159.407 340.301,159.656 336.809,159.930 324.600 L 160.200 312.600 181.400 312.388 C 195.146 312.251,203.022 312.024,203.800 311.741 C 211.033 309.118,215.360 304.588,218.453 296.400 C 221.689 287.837,215.614 274.805,206.483 270.716 C 202.058 268.735,204.141 268.800,144.961 268.800 C 84.321 268.800,88.640 268.975,86.207 266.417 C 85.149 265.304,85.014 264.883,85.007 262.679 C 84.999 259.906,84.126 261.602,93.805 245.600 C 101.662 232.611,101.751 232.382,101.773 225.200 C 101.793 218.788,100.913 215.783,97.542 210.747 C 96.127 208.633,91.407 204.006,90.662 204.002 C 90.476 204.001,89.846 203.661,89.262 203.247 C 85.754 200.761,76.834 199.275,72.400 200.440 " stroke="none" fill="#f0eeec" fill-rule="evenodd"></path><path id="path1" d="M185.900 0.277 C 183.238 0.361,181.200 0.593,181.200 0.813 C 181.200 1.030,179.805 1.200,178.024 1.200 C 176.277 1.200,174.736 1.380,174.600 1.600 C 174.464 1.820,173.204 2.000,171.800 2.000 C 170.396 2.000,169.136 2.180,169.000 2.400 C 168.864 2.620,167.694 2.800,166.400 2.800 C 165.106 2.800,163.936 2.980,163.800 3.200 C 163.664 3.420,162.573 3.600,161.376 3.600 C 160.179 3.600,159.200 3.780,159.200 4.000 C 159.200 4.220,158.311 4.400,157.224 4.400 C 156.137 4.400,155.136 4.580,155.000 4.800 C 154.864 5.020,153.863 5.200,152.776 5.200 C 151.689 5.200,150.800 5.380,150.800 5.600 C 150.800 5.820,150.080 6.000,149.200 6.000 C 148.320 6.000,147.600 6.180,147.600 6.400 C 147.600 6.620,146.790 6.800,145.800 6.800 C 144.810 6.800,144.000 6.961,144.000 7.158 C 144.000 7.355,143.280 7.625,142.400 7.758 C 141.520 7.891,140.080 8.109,139.200 8.242 C 138.320 8.375,137.600 8.618,137.600 8.781 C 137.600 8.945,137.105 9.095,136.500 9.116 C 135.895 9.137,133.822 9.614,131.894 10.177 C 129.966 10.740,128.121 11.200,127.794 11.200 C 127.467 11.200,127.200 11.380,127.200 11.600 C 127.200 11.820,126.795 12.005,126.300 12.010 C 125.330 12.021,120.184 13.683,119.738 14.129 C 119.589 14.278,119.057 14.400,118.557 14.400 C 118.057 14.400,117.536 14.580,117.400 14.800 C 117.264 15.020,116.713 15.200,116.176 15.200 C 115.639 15.200,115.200 15.380,115.200 15.600 C 115.200 15.820,114.838 16.000,114.395 16.000 C 113.952 16.000,113.232 16.180,112.795 16.400 C 112.358 16.620,111.642 16.980,111.205 17.200 C 110.768 17.420,110.138 17.600,109.805 17.600 C 109.472 17.600,109.200 17.747,109.200 17.928 C 109.200 18.108,108.300 18.500,107.200 18.800 C 106.100 19.100,105.200 19.492,105.200 19.672 C 105.200 19.853,104.795 20.004,104.300 20.009 C 103.805 20.014,102.950 20.370,102.400 20.800 C 101.850 21.230,100.995 21.586,100.500 21.591 C 100.005 21.596,99.599 21.735,99.597 21.900 C 99.593 22.259,97.656 23.200,96.920 23.200 C 96.634 23.200,96.400 23.380,96.400 23.600 C 96.400 23.820,96.113 24.000,95.762 24.000 C 95.411 24.000,94.646 24.326,94.062 24.725 C 93.478 25.124,92.232 25.694,91.294 25.991 C 90.356 26.289,89.389 26.772,89.145 27.066 C 88.902 27.360,88.379 27.600,87.984 27.600 C 87.590 27.600,87.207 27.735,87.133 27.900 C 87.060 28.065,86.100 28.648,85.000 29.195 C 83.900 29.742,82.910 30.282,82.800 30.395 C 82.418 30.787,80.196 32.051,79.500 32.271 C 79.115 32.393,78.800 32.652,78.800 32.847 C 78.800 33.041,78.530 33.200,78.200 33.200 C 77.870 33.200,77.600 33.380,77.600 33.600 C 77.600 33.820,77.330 34.000,77.000 34.000 C 76.670 34.000,76.400 34.180,76.400 34.400 C 76.400 34.620,76.040 34.800,75.600 34.800 C 75.160 34.800,74.800 34.980,74.800 35.200 C 74.800 35.420,74.575 35.600,74.300 35.600 C 74.025 35.601,73.277 36.051,72.638 36.600 C 71.999 37.150,71.352 37.600,71.200 37.600 C 71.048 37.600,70.401 38.050,69.762 38.600 C 69.123 39.149,68.375 39.599,68.100 39.600 C 67.825 39.600,67.600 39.750,67.600 39.932 C 67.600 40.115,67.105 40.519,66.500 40.830 C 65.895 41.140,65.085 41.738,64.700 42.158 C 64.315 42.579,64.000 42.789,64.000 42.626 C 64.000 42.462,63.478 42.750,62.839 43.264 C 62.201 43.779,61.089 44.650,60.369 45.200 C 59.649 45.750,58.834 46.425,58.558 46.700 C 58.283 46.975,57.909 47.201,57.729 47.203 C 57.548 47.204,56.680 47.916,55.800 48.783 C 54.920 49.651,54.015 50.370,53.788 50.380 C 53.562 50.391,53.117 50.760,52.800 51.200 C 52.483 51.640,52.093 52.000,51.934 52.000 C 51.775 52.000,50.005 53.620,48.000 55.600 C 45.995 57.580,44.185 59.200,43.978 59.200 C 43.770 59.200,43.600 59.361,43.600 59.557 C 43.600 59.754,41.620 61.941,39.200 64.418 C 36.780 66.895,34.800 69.070,34.800 69.251 C 34.800 69.433,33.900 70.525,32.800 71.678 C 31.700 72.831,30.800 73.924,30.800 74.106 C 30.800 74.288,30.350 74.886,29.800 75.436 C 29.250 75.986,28.800 76.565,28.800 76.722 C 28.800 76.880,28.386 77.456,27.880 78.004 C 27.373 78.552,26.614 79.585,26.193 80.300 C 25.772 81.015,25.286 81.600,25.114 81.600 C 24.941 81.600,24.800 81.960,24.800 82.400 C 24.800 82.840,24.650 83.200,24.468 83.200 C 24.285 83.200,23.880 83.695,23.568 84.300 C 23.255 84.905,22.685 85.749,22.300 86.175 C 21.915 86.602,21.600 87.187,21.600 87.475 C 21.600 87.764,21.420 88.000,21.200 88.000 C 20.980 88.000,20.800 88.270,20.800 88.600 C 20.800 88.930,20.654 89.200,20.475 89.200 C 20.296 89.200,19.902 89.830,19.600 90.600 C 19.298 91.370,18.948 92.000,18.823 92.000 C 18.698 92.000,18.341 92.585,18.030 93.300 C 17.719 94.015,17.360 94.690,17.232 94.800 C 17.104 94.910,16.626 95.720,16.170 96.600 C 15.713 97.480,15.148 98.560,14.914 99.000 C 14.679 99.440,14.108 100.655,13.644 101.700 C 13.180 102.745,12.459 104.365,12.043 105.300 C 11.043 107.546,9.830 110.960,9.963 111.155 C 10.021 111.241,9.864 111.437,9.614 111.591 C 9.364 111.746,9.131 112.261,9.095 112.736 C 9.059 113.211,8.888 113.600,8.715 113.600 C 8.542 113.600,8.400 114.140,8.400 114.800 C 8.400 115.460,8.220 116.000,8.000 116.000 C 7.780 116.000,7.600 116.540,7.600 117.200 C 7.600 117.860,7.420 118.400,7.200 118.400 C 6.980 118.400,6.800 118.940,6.800 119.600 C 6.800 120.260,6.620 120.800,6.400 120.800 C 6.180 120.800,6.000 121.329,6.000 121.976 C 6.000 122.623,5.820 123.264,5.600 123.400 C 5.380 123.536,5.200 124.166,5.200 124.800 C 5.200 125.434,5.020 126.064,4.800 126.200 C 4.580 126.336,4.400 127.056,4.400 127.800 C 4.400 128.544,4.220 129.264,4.000 129.400 C 3.780 129.536,3.600 130.357,3.600 131.224 C 3.600 132.091,3.420 132.800,3.200 132.800 C 2.980 132.800,2.800 133.599,2.800 134.576 C 2.800 135.553,2.620 136.464,2.400 136.600 C 2.180 136.736,2.000 137.647,2.000 138.624 C 2.000 139.601,1.820 140.400,1.600 140.400 C 1.376 140.400,1.200 141.507,1.200 142.920 C 1.200 144.364,0.992 145.648,0.714 145.926 C 0.352 146.288,0.192 150.871,0.086 163.906 C -0.048 180.555,0.178 186.635,1.208 194.000 C 1.438 195.650,1.728 197.945,1.850 199.100 C 1.973 200.255,2.237 201.200,2.437 201.200 C 2.637 201.200,2.800 202.010,2.800 203.000 C 2.800 203.990,2.980 204.800,3.200 204.800 C 3.420 204.800,3.600 205.700,3.600 206.800 C 3.600 207.900,3.762 208.800,3.960 208.800 C 4.158 208.800,4.419 209.565,4.541 210.500 C 4.966 213.760,5.291 215.209,5.644 215.427 C 5.840 215.548,6.000 216.267,6.000 217.024 C 6.000 217.781,6.180 218.400,6.400 218.400 C 6.620 218.400,6.800 219.030,6.800 219.800 C 6.800 220.570,6.980 221.200,7.200 221.200 C 7.420 221.200,7.600 221.740,7.600 222.400 C 7.600 223.060,7.780 223.600,8.000 223.600 C 8.220 223.600,8.400 224.200,8.400 224.933 C 8.400 225.667,8.527 226.393,8.682 226.548 C 8.837 226.703,9.029 227.315,9.108 227.908 C 9.187 228.500,9.436 229.099,9.660 229.237 C 9.885 229.376,10.017 229.559,9.954 229.645 C 9.785 229.876,12.078 236.939,12.466 237.380 C 12.650 237.589,12.800 238.079,12.800 238.468 C 12.800 238.857,13.129 239.766,13.531 240.488 C 13.933 241.210,14.513 242.655,14.818 243.700 C 15.124 244.745,15.515 245.600,15.687 245.600 C 15.859 245.600,16.000 245.955,16.000 246.388 C 16.000 246.821,16.360 247.817,16.800 248.600 C 17.240 249.383,17.600 250.289,17.600 250.612 C 17.600 250.935,17.780 251.200,18.000 251.200 C 18.220 251.200,18.400 251.470,18.400 251.800 C 18.400 253.123,19.587 252.232,22.263 248.900 C 24.810 245.728,27.345 242.849,36.792 232.400 C 38.482 230.530,41.720 226.930,43.987 224.400 C 48.215 219.681,51.611 215.908,56.876 210.080 C 62.092 204.305,65.343 202.264,72.000 200.584 C 77.095 199.298,85.525 200.598,89.262 203.247 C 89.846 203.661,90.476 204.001,90.662 204.002 C 91.407 204.006,96.127 208.633,97.542 210.747 C 100.913 215.783,101.793 218.788,101.773 225.200 C 101.751 232.382,101.662 232.611,93.805 245.600 C 84.126 261.602,84.999 259.906,85.007 262.679 C 85.014 264.883,85.149 265.304,86.207 266.417 C 88.640 268.975,84.321 268.800,144.961 268.800 C 204.141 268.800,202.058 268.735,206.483 270.716 C 215.614 274.805,221.689 287.837,218.453 296.400 C 215.360 304.588,211.033 309.118,203.800 311.741 C 203.022 312.024,195.146 312.251,181.400 312.388 L 160.200 312.600 159.930 324.600 C 159.656 336.809,159.407 340.301,158.761 340.980 C 158.563 341.189,158.400 342.033,158.400 342.856 C 158.400 343.679,158.220 344.464,158.000 344.600 C 157.780 344.736,157.600 345.289,157.600 345.829 C 157.600 346.369,157.438 347.123,157.239 347.505 C 157.040 347.887,156.643 349.010,156.356 350.000 C 154.352 356.907,148.153 368.345,144.100 372.616 C 143.825 372.906,143.600 373.245,143.600 373.369 C 143.600 373.494,142.071 375.172,140.202 377.098 C 137.046 380.351,136.213 381.600,137.200 381.600 C 137.420 381.600,137.603 381.375,137.607 381.100 C 137.611 380.825,139.007 379.160,140.710 377.400 C 142.414 375.640,144.247 373.570,144.784 372.800 C 145.322 372.030,145.881 371.310,146.028 371.200 C 147.354 370.206,153.059 360.087,155.274 354.800 C 155.505 354.250,155.852 353.487,156.047 353.105 C 156.241 352.723,156.400 352.059,156.400 351.629 C 156.400 351.199,156.580 350.736,156.800 350.600 C 157.020 350.464,157.200 349.924,157.200 349.400 C 157.200 348.876,157.380 348.336,157.600 348.200 C 157.820 348.064,158.000 347.434,158.000 346.800 C 158.000 346.166,158.180 345.536,158.400 345.400 C 158.620 345.264,158.806 344.488,158.813 343.676 C 158.833 341.289,159.287 341.030,165.200 340.034 C 172.250 338.846,184.324 336.166,189.200 334.707 C 192.092 333.842,192.645 333.680,194.400 333.185 C 214.871 327.406,237.280 317.063,259.400 303.181 C 260.940 302.214,262.290 301.313,262.400 301.178 C 262.510 301.043,264.310 299.788,266.400 298.390 C 280.886 288.697,299.158 272.436,311.336 258.400 C 313.340 256.090,315.078 254.110,315.197 254.000 C 316.675 252.637,326.623 239.623,330.512 233.964 C 338.968 221.661,347.571 206.260,353.619 192.600 C 357.313 184.256,362.691 169.548,364.663 162.400 C 364.996 161.190,365.421 159.660,365.607 159.000 C 366.443 156.030,367.697 151.243,368.070 149.600 C 368.295 148.610,368.622 147.170,368.798 146.400 C 369.184 144.705,371.057 135.057,371.593 132.000 C 372.599 126.261,373.426 119.533,374.001 112.400 C 374.241 109.430,374.615 105.277,374.833 103.170 C 375.254 99.095,375.157 98.485,373.786 96.600 C 373.307 95.940,372.647 94.860,372.322 94.200 C 371.058 91.640,369.611 89.223,367.093 85.465 C 366.822 85.060,366.645 84.565,366.700 84.365 C 366.755 84.164,366.662 84.000,366.494 84.000 C 366.326 84.000,365.744 83.280,365.200 82.400 C 364.656 81.520,364.074 80.800,363.906 80.800 C 363.738 80.800,363.600 80.530,363.600 80.200 C 363.600 79.870,363.420 79.600,363.200 79.600 C 362.980 79.600,362.800 79.330,362.800 79.000 C 362.800 78.670,362.662 78.400,362.494 78.400 C 362.326 78.400,361.744 77.680,361.200 76.800 C 360.656 75.920,360.074 75.200,359.906 75.200 C 359.738 75.200,359.600 74.996,359.600 74.747 C 359.600 74.498,359.212 73.958,358.739 73.547 C 358.265 73.136,358.040 72.797,358.239 72.794 C 358.437 72.791,358.420 72.656,358.200 72.494 C 357.867 72.249,355.789 69.674,354.736 68.200 C 354.579 67.980,353.747 66.990,352.887 66.000 C 352.028 65.010,350.981 63.771,350.562 63.247 C 350.143 62.723,348.688 61.162,347.329 59.777 C 345.970 58.393,344.554 56.797,344.183 56.230 C 343.812 55.664,343.259 55.200,342.954 55.200 C 342.649 55.200,342.400 55.000,342.400 54.755 C 342.400 54.059,332.671 44.691,329.981 42.798 C 329.222 42.263,327.939 41.145,327.131 40.313 C 326.324 39.481,325.495 38.800,325.291 38.800 C 325.086 38.800,324.354 38.260,323.663 37.600 C 322.972 36.940,322.241 36.400,322.037 36.400 C 321.833 36.400,321.607 36.241,321.533 36.046 C 321.425 35.760,315.205 31.177,312.800 29.613 C 312.470 29.398,311.259 28.587,310.110 27.811 C 308.960 27.035,307.835 26.400,307.610 26.400 C 307.384 26.400,307.200 26.264,307.200 26.098 C 307.200 25.931,306.615 25.536,305.900 25.220 C 305.185 24.903,304.251 24.320,303.825 23.922 C 303.398 23.525,302.813 23.200,302.525 23.200 C 302.236 23.200,302.000 23.020,302.000 22.800 C 302.000 22.580,301.640 22.400,301.200 22.400 C 300.760 22.400,300.400 22.220,300.400 22.000 C 300.400 21.780,300.040 21.600,299.600 21.600 C 299.160 21.600,298.800 21.454,298.800 21.275 C 298.800 21.096,298.170 20.702,297.400 20.400 C 296.630 20.098,296.000 19.748,296.000 19.623 C 296.000 19.498,295.415 19.142,294.700 18.832 C 293.985 18.522,291.150 17.208,288.400 15.911 C 285.650 14.615,283.040 13.405,282.600 13.223 C 282.160 13.042,280.180 12.218,278.200 11.393 C 276.220 10.567,274.195 9.872,273.700 9.846 C 273.205 9.821,272.800 9.693,272.800 9.563 C 272.800 9.247,269.927 8.400,268.854 8.400 C 268.384 8.400,268.000 8.220,268.000 8.000 C 268.000 7.780,267.471 7.600,266.824 7.600 C 266.177 7.600,265.536 7.420,265.400 7.200 C 265.264 6.980,264.623 6.800,263.976 6.800 C 263.329 6.800,262.800 6.620,262.800 6.400 C 262.800 6.180,262.181 6.000,261.424 6.000 C 260.667 6.000,259.936 5.820,259.800 5.600 C 259.664 5.380,259.023 5.200,258.376 5.200 C 257.729 5.200,257.200 5.020,257.200 4.800 C 257.200 4.580,256.390 4.400,255.400 4.400 C 254.410 4.400,253.600 4.220,253.600 4.000 C 253.600 3.780,252.891 3.600,252.024 3.600 C 251.157 3.600,250.336 3.420,250.200 3.200 C 250.064 2.980,249.189 2.800,248.256 2.800 C 247.323 2.800,246.389 2.637,246.180 2.439 C 245.797 2.075,243.824 1.757,239.400 1.346 C 238.080 1.224,236.748 0.917,236.441 0.664 C 235.890 0.211,197.323 -0.085,185.900 0.277 M149.800 50.598 C 172.423 53.638,184.687 60.897,180.589 68.822 C 178.799 72.282,173.612 72.975,170.400 70.182 C 159.683 60.864,118.492 60.450,105.692 69.532 C 100.616 73.133,96.388 72.665,94.190 68.259 C 90.460 60.782,103.521 53.470,126.000 50.451 C 130.426 49.857,144.952 49.946,149.800 50.598 M302.720 62.962 C 305.962 64.649,307.355 68.862,305.642 71.800 C 301.930 78.164,282.942 83.836,258.000 86.033 C 225.272 88.916,218.800 88.170,218.800 81.515 C 218.800 76.515,221.422 74.800,229.064 74.800 C 256.264 74.800,286.125 70.103,295.007 64.427 C 297.952 62.545,298.191 62.447,299.920 62.424 C 300.866 62.411,302.126 62.653,302.720 62.962 M143.234 82.042 C 148.815 83.873,153.364 88.038,155.204 93.000 C 155.367 93.440,155.703 94.303,155.950 94.919 C 156.535 96.374,156.531 103.333,155.944 105.172 C 150.592 121.932,127.547 123.835,120.153 108.127 C 118.832 105.321,118.337 98.525,119.218 95.275 C 122.020 84.941,133.236 78.761,143.234 82.042 M124.901 93.800 C 124.905 94.680,124.987 94.993,125.083 94.495 C 125.179 93.998,125.175 93.278,125.075 92.895 C 124.975 92.513,124.896 92.920,124.901 93.800 M267.355 97.402 C 286.198 103.118,286.497 127.767,267.800 134.043 C 263.766 135.397,256.974 134.534,252.884 132.149 C 249.590 130.227,245.200 125.241,245.200 123.422 C 245.200 123.080,245.040 122.800,244.845 122.800 C 243.895 122.800,243.284 114.383,244.034 111.627 C 245.794 105.156,250.515 99.691,255.800 98.006 C 256.680 97.726,257.760 97.352,258.200 97.175 C 259.551 96.633,265.289 96.775,267.355 97.402 M84.880 119.635 C 99.510 122.640,104.553 141.299,93.391 151.124 C 88.573 155.365,80.744 156.975,75.400 154.823 C 69.671 152.517,66.283 149.129,63.977 143.400 C 58.974 130.975,71.387 116.864,84.880 119.635 M325.063 120.457 C 341.241 126.500,340.948 148.242,324.600 154.823 C 323.855 155.123,323.173 155.267,319.644 155.869 C 314.027 156.827,305.581 151.863,302.692 145.906 C 295.336 130.740,309.490 114.639,325.063 120.457 M209.062 187.972 C 213.462 189.970,213.932 196.360,209.881 199.100 L 208.550 200.000 187.534 200.000 L 166.518 200.000 165.189 199.100 C 160.864 196.171,161.701 189.394,166.600 187.682 C 169.038 186.831,207.120 187.090,209.062 187.972 " stroke="none" fill="#fbcb83" fill-rule="evenodd"></path><path id="path2" d="M128.400 50.451 C 106.355 52.975,93.479 58.914,94.090 66.278 C 94.549 71.812,99.618 73.335,105.200 69.616 C 119.540 60.060,155.682 60.102,170.041 69.691 C 172.977 71.651,174.511 72.109,176.426 71.593 C 182.043 70.081,182.791 63.356,177.725 59.904 C 169.905 54.576,162.476 52.347,146.036 50.399 C 142.097 49.932,132.690 49.960,128.400 50.451 M298.200 62.891 C 297.540 63.126,296.244 63.835,295.319 64.465 C 291.799 66.867,284.084 69.455,276.400 70.811 C 269.610 72.009,266.899 72.391,259.600 73.174 C 251.435 74.050,246.161 74.407,235.000 74.836 C 221.961 75.337,221.280 75.496,219.647 78.402 C 217.662 81.934,219.806 86.433,223.973 87.479 C 225.085 87.758,243.275 87.019,251.000 86.381 C 260.594 85.588,265.050 85.159,267.502 84.792 C 277.140 83.351,277.945 83.203,285.200 81.529 C 296.105 79.013,304.760 74.382,305.944 70.430 C 307.293 65.925,302.575 61.331,298.200 62.891 M133.351 81.790 C 111.861 87.049,115.508 118.800,137.602 118.800 C 150.561 118.800,160.611 104.314,155.151 93.505 C 154.958 93.123,154.800 92.619,154.800 92.383 C 154.800 91.345,151.377 87.061,149.354 85.566 C 144.202 81.760,138.740 80.471,133.351 81.790 M134.577 88.381 C 139.854 91.860,137.502 100.000,131.219 100.000 C 124.448 100.000,122.562 91.406,128.600 88.067 C 129.924 87.335,133.255 87.510,134.577 88.381 M258.730 97.379 C 240.105 101.460,238.609 127.173,256.627 133.542 C 259.249 134.469,266.512 134.790,267.000 134.000 C 267.136 133.780,267.581 133.600,267.989 133.600 C 275.591 133.600,283.942 118.500,280.753 110.519 C 276.677 100.317,268.255 95.292,258.730 97.379 M259.504 103.998 C 264.830 107.246,262.532 115.594,256.310 115.599 C 249.798 115.604,247.573 106.935,253.279 103.787 C 254.752 102.974,258.005 103.084,259.504 103.998 " stroke="none" fill="#5d5c5c" fill-rule="evenodd"></path><path id="path3" d="M144.900 50.276 C 145.285 50.376,145.915 50.376,146.300 50.276 C 146.685 50.175,146.370 50.093,145.600 50.093 C 144.830 50.093,144.515 50.175,144.900 50.276 M342.093 54.400 C 342.562 55.151,343.200 55.480,343.200 54.971 C 343.200 54.673,342.125 53.600,341.825 53.600 C 341.698 53.600,341.818 53.960,342.093 54.400 M95.375 61.300 L 94.200 62.600 95.500 61.425 C 96.712 60.330,96.984 60.000,96.675 60.000 C 96.606 60.000,96.021 60.585,95.375 61.300 M134.518 62.698 C 136.233 62.773,138.933 62.772,140.518 62.697 C 142.103 62.621,140.700 62.559,137.400 62.560 C 134.100 62.561,132.803 62.622,134.518 62.698 M304.175 73.300 L 303.000 74.600 304.300 73.425 C 305.015 72.779,305.600 72.194,305.600 72.125 C 305.600 71.816,305.270 72.088,304.175 73.300 M255.105 73.483 C 255.602 73.579,256.322 73.575,256.705 73.475 C 257.087 73.375,256.680 73.296,255.800 73.301 C 254.920 73.305,254.607 73.387,255.105 73.483 M244.900 74.287 C 245.505 74.378,246.495 74.378,247.100 74.287 C 247.705 74.195,247.210 74.120,246.000 74.120 C 244.790 74.120,244.295 74.195,244.900 74.287 M237.500 74.682 C 237.995 74.778,238.805 74.778,239.300 74.682 C 239.795 74.587,239.390 74.509,238.400 74.509 C 237.410 74.509,237.005 74.587,237.500 74.682 M224.505 75.087 C 225.114 75.179,226.014 75.177,226.505 75.082 C 226.997 74.987,226.500 74.911,225.400 74.914 C 224.300 74.917,223.897 74.995,224.505 75.087 M253.300 86.276 C 253.685 86.376,254.315 86.376,254.700 86.276 C 255.085 86.175,254.770 86.093,254.000 86.093 C 253.230 86.093,252.915 86.175,253.300 86.276 M249.905 86.683 C 250.402 86.779,251.122 86.775,251.505 86.675 C 251.887 86.575,251.480 86.496,250.600 86.501 C 249.720 86.505,249.407 86.587,249.905 86.683 M241.305 87.087 C 241.914 87.179,242.814 87.177,243.305 87.082 C 243.797 86.987,243.300 86.911,242.200 86.914 C 241.100 86.917,240.697 86.995,241.305 87.087 M235.100 87.489 C 235.815 87.578,236.985 87.578,237.700 87.489 C 238.415 87.401,237.830 87.328,236.400 87.328 C 234.970 87.328,234.385 87.401,235.100 87.489 M372.403 94.300 C 372.406 94.657,373.994 97.108,373.997 96.761 C 373.999 96.630,373.717 95.955,373.371 95.261 C 372.762 94.041,372.397 93.679,372.403 94.300 M375.025 101.007 C 374.880 101.780,374.597 104.795,374.397 107.707 C 373.580 119.589,371.960 131.521,369.741 142.000 C 368.087 149.809,367.410 152.595,365.607 159.000 C 365.421 159.660,364.996 161.190,364.663 162.400 C 362.691 169.548,357.313 184.256,353.619 192.600 C 347.571 206.260,338.968 221.661,330.512 233.964 C 326.623 239.623,316.675 252.637,315.197 254.000 C 315.078 254.110,313.340 256.090,311.336 258.400 C 299.158 272.436,280.886 288.697,266.400 298.390 C 264.310 299.788,262.510 301.043,262.400 301.178 C 262.290 301.313,260.940 302.214,259.400 303.181 C 237.255 317.078,215.364 327.185,194.400 333.192 C 193.410 333.476,191.970 333.889,191.200 334.110 C 190.430 334.331,189.350 334.653,188.800 334.827 C 185.026 336.016,172.038 338.882,165.200 340.034 C 159.287 341.030,158.833 341.289,158.813 343.676 C 158.806 344.488,158.620 345.264,158.400 345.400 C 158.180 345.536,158.000 346.166,158.000 346.800 C 158.000 347.434,157.820 348.064,157.600 348.200 C 157.380 348.336,157.200 348.876,157.200 349.400 C 157.200 349.924,157.020 350.464,156.800 350.600 C 156.580 350.736,156.400 351.199,156.400 351.629 C 156.400 352.059,156.241 352.723,156.047 353.105 C 155.852 353.487,155.505 354.250,155.274 354.800 C 153.059 360.087,147.354 370.206,146.028 371.200 C 145.881 371.310,145.322 372.030,144.784 372.800 C 144.247 373.570,142.414 375.640,140.710 377.400 C 137.299 380.926,137.021 381.680,138.800 382.600 C 139.527 382.976,140.000 383.053,140.000 382.795 C 140.000 382.560,140.394 382.736,140.875 383.184 C 141.357 383.633,141.972 384.000,142.242 384.000 C 142.512 384.000,142.793 384.142,142.867 384.315 C 143.121 384.914,147.591 386.852,148.057 386.565 C 148.348 386.385,148.416 386.450,148.238 386.738 C 148.058 387.030,148.256 387.200,148.776 387.200 C 149.229 387.200,149.600 387.391,149.600 387.624 C 149.600 387.857,149.748 387.956,149.929 387.844 C 150.109 387.732,150.760 387.902,151.374 388.220 C 151.989 388.539,152.966 388.803,153.546 388.806 C 154.229 388.810,154.422 388.925,154.095 389.133 C 153.613 389.439,157.401 390.732,158.100 390.500 C 158.265 390.445,158.400 390.569,158.400 390.775 C 158.400 390.982,159.210 391.272,160.200 391.421 C 161.190 391.569,162.000 391.850,162.000 392.045 C 162.000 392.240,162.540 392.400,163.200 392.400 C 163.860 392.400,164.400 392.580,164.400 392.800 C 164.400 393.020,164.940 393.200,165.600 393.200 C 166.290 393.200,166.803 393.412,166.806 393.700 C 166.810 394.033,166.942 394.000,167.200 393.600 C 167.458 393.200,167.590 393.167,167.594 393.500 C 167.597 393.775,167.960 394.000,168.400 394.000 C 168.840 394.000,169.200 394.180,169.200 394.400 C 169.200 394.620,170.235 394.813,171.500 394.828 C 173.155 394.848,173.576 394.953,173.000 395.200 C 172.355 395.477,172.487 395.549,173.676 395.572 C 174.488 395.587,175.276 395.799,175.426 396.043 C 175.617 396.351,175.804 396.321,176.044 395.943 C 176.297 395.543,176.389 395.532,176.394 395.900 C 176.397 396.175,176.839 396.400,177.376 396.400 C 177.913 396.400,178.464 396.580,178.600 396.800 C 178.736 397.020,179.917 397.200,181.224 397.200 C 182.541 397.200,183.600 397.378,183.600 397.600 C 183.600 397.820,184.230 398.000,185.000 398.000 C 185.770 398.000,186.400 398.180,186.400 398.400 C 186.400 398.622,187.456 398.800,188.767 398.800 C 190.304 398.800,191.192 398.975,191.300 399.300 C 191.503 399.910,227.083 400.112,233.200 399.537 C 235.290 399.341,238.215 399.080,239.700 398.957 C 241.185 398.835,242.400 398.569,242.400 398.367 C 242.400 398.165,243.300 398.000,244.400 398.000 C 245.500 398.000,246.400 397.820,246.400 397.600 C 246.400 397.380,247.289 397.200,248.376 397.200 C 249.463 397.200,250.464 397.020,250.600 396.800 C 250.736 396.580,251.647 396.400,252.624 396.400 C 253.601 396.400,254.400 396.220,254.400 396.000 C 254.400 395.780,255.019 395.600,255.776 395.600 C 256.533 395.600,257.264 395.420,257.400 395.200 C 257.536 394.980,258.267 394.800,259.024 394.800 C 259.781 394.800,260.400 394.620,260.400 394.400 C 260.400 394.180,260.940 394.000,261.600 394.000 C 262.260 394.000,262.800 393.820,262.800 393.600 C 262.800 393.380,263.419 393.200,264.176 393.200 C 264.933 393.200,265.664 393.020,265.800 392.800 C 265.936 392.580,266.577 392.400,267.224 392.400 C 267.871 392.400,268.400 392.220,268.400 392.000 C 268.400 391.780,268.789 391.600,269.265 391.600 C 270.331 391.600,274.400 390.344,274.400 390.014 C 274.400 389.882,274.895 389.734,275.500 389.684 C 276.105 389.634,276.660 389.415,276.733 389.197 C 276.807 388.978,277.392 388.800,278.033 388.800 C 278.675 388.800,279.200 388.620,279.200 388.400 C 279.200 388.180,279.560 388.000,280.000 388.000 C 280.440 388.000,280.800 387.820,280.800 387.600 C 280.800 387.380,281.340 387.200,282.000 387.200 C 282.660 387.200,283.200 387.020,283.200 386.800 C 283.200 386.580,283.560 386.400,284.000 386.400 C 284.440 386.400,284.800 386.220,284.800 386.000 C 284.800 385.780,285.160 385.600,285.600 385.600 C 286.040 385.600,286.400 385.420,286.400 385.200 C 286.400 384.980,286.749 384.800,287.176 384.800 C 287.603 384.800,288.064 384.620,288.200 384.400 C 288.336 384.180,288.797 384.000,289.224 384.000 C 289.651 384.000,290.000 383.820,290.000 383.600 C 290.000 383.380,290.360 383.200,290.800 383.200 C 291.240 383.200,291.600 383.020,291.600 382.800 C 291.600 382.580,291.960 382.400,292.400 382.400 C 292.840 382.400,293.200 382.220,293.200 382.000 C 293.200 381.780,293.520 381.600,293.912 381.600 C 294.303 381.600,294.880 381.244,295.194 380.809 C 295.613 380.227,295.846 380.148,296.076 380.509 C 296.321 380.894,296.389 380.892,296.394 380.500 C 296.397 380.225,296.760 380.000,297.200 380.000 C 297.640 380.000,298.000 379.820,298.000 379.600 C 298.000 379.380,298.270 379.200,298.600 379.200 C 298.930 379.200,299.200 379.020,299.200 378.800 C 299.200 378.580,299.470 378.400,299.800 378.400 C 300.130 378.400,300.400 378.220,300.400 378.000 C 300.400 377.780,300.760 377.600,301.200 377.600 C 301.640 377.600,302.000 377.420,302.000 377.200 C 302.000 376.980,302.281 376.800,302.624 376.800 C 302.967 376.800,303.159 376.657,303.051 376.483 C 302.944 376.309,303.232 376.138,303.692 376.103 C 304.152 376.068,304.634 375.896,304.764 375.720 C 304.894 375.544,305.540 375.117,306.200 374.771 C 308.280 373.681,309.334 373.022,310.155 372.300 C 310.593 371.915,311.187 371.600,311.475 371.600 C 311.764 371.600,312.000 371.450,312.000 371.268 C 312.000 371.085,312.495 370.680,313.100 370.368 C 313.705 370.055,314.549 369.485,314.975 369.100 C 315.402 368.715,315.947 368.400,316.187 368.400 C 316.427 368.400,316.883 368.040,317.200 367.600 C 317.517 367.160,318.007 366.800,318.288 366.800 C 318.570 366.800,318.800 366.620,318.800 366.400 C 318.800 366.180,319.030 366.000,319.312 366.000 C 319.593 366.000,320.083 365.640,320.400 365.200 C 320.717 364.760,321.192 364.400,321.454 364.400 C 321.717 364.400,322.442 363.860,323.065 363.200 C 323.688 362.540,324.346 362.000,324.527 362.000 C 325.081 362.000,326.000 360.895,326.000 360.229 C 326.000 359.867,326.339 359.600,326.800 359.600 C 327.240 359.600,327.600 359.432,327.600 359.227 C 327.600 359.022,327.960 358.740,328.400 358.600 C 328.840 358.460,329.200 358.094,329.200 357.786 C 329.200 357.477,329.426 357.312,329.703 357.418 C 329.979 357.524,331.697 356.168,333.520 354.405 C 335.344 352.642,336.986 351.200,337.169 351.200 C 337.795 351.200,341.206 347.134,340.941 346.704 C 340.786 346.454,340.865 346.393,341.130 346.557 C 341.638 346.870,345.600 342.931,345.600 342.113 C 345.600 341.831,345.770 341.600,345.978 341.600 C 346.429 341.600,351.200 336.789,351.200 336.335 C 351.200 336.161,352.100 335.075,353.200 333.922 C 354.300 332.769,355.200 331.609,355.200 331.346 C 355.200 331.082,355.351 330.807,355.536 330.733 C 356.231 330.458,358.800 326.708,358.800 325.969 C 358.800 325.546,359.030 325.200,359.311 325.200 C 359.902 325.200,361.251 323.734,361.363 322.970 C 361.405 322.685,361.925 321.965,362.520 321.371 C 363.114 320.777,363.600 320.112,363.600 319.892 C 363.600 319.673,363.916 319.203,364.303 318.847 C 364.689 318.491,365.260 317.705,365.570 317.100 C 365.881 316.495,366.285 316.000,366.468 316.000 C 366.650 316.000,366.800 315.680,366.800 315.288 C 366.800 314.897,367.160 314.317,367.600 314.000 C 368.040 313.683,368.400 313.103,368.400 312.712 C 368.400 312.320,368.591 312.000,368.824 312.000 C 369.057 312.000,369.148 311.839,369.026 311.642 C 368.904 311.445,369.074 311.181,369.402 311.054 C 369.731 310.928,370.000 310.549,370.000 310.213 C 370.000 309.876,370.135 309.599,370.300 309.597 C 370.621 309.594,371.600 307.688,371.600 307.067 C 371.600 306.862,371.925 306.403,372.322 306.047 C 372.719 305.691,373.281 304.815,373.571 304.100 C 373.860 303.385,374.241 302.800,374.417 302.800 C 374.711 302.800,375.334 300.722,375.204 300.176 C 375.173 300.046,375.519 299.617,375.974 299.223 C 376.428 298.829,376.800 298.212,376.800 297.853 C 376.800 297.494,376.980 297.200,377.200 297.200 C 377.420 297.200,377.600 296.840,377.600 296.400 C 377.600 295.960,377.780 295.600,378.000 295.600 C 378.220 295.600,378.400 295.240,378.400 294.800 C 378.400 294.360,378.580 294.000,378.800 294.000 C 379.020 294.000,379.200 293.640,379.200 293.200 C 379.200 292.760,379.380 292.400,379.600 292.400 C 379.820 292.400,380.000 292.040,380.000 291.600 C 380.000 291.160,380.180 290.800,380.400 290.800 C 380.620 290.800,380.800 290.451,380.800 290.024 C 380.800 289.597,380.980 289.136,381.200 289.000 C 381.420 288.864,381.600 288.403,381.600 287.976 C 381.600 287.549,381.780 287.200,382.000 287.200 C 382.220 287.200,382.400 286.840,382.400 286.400 C 382.400 285.960,382.580 285.600,382.800 285.600 C 383.020 285.600,383.200 285.240,383.200 284.800 C 383.200 284.360,383.380 284.000,383.600 284.000 C 383.820 284.000,384.000 283.460,384.000 282.800 C 384.000 282.140,384.180 281.600,384.400 281.600 C 384.620 281.600,384.800 281.240,384.800 280.800 C 384.800 280.360,384.980 280.000,385.200 280.000 C 385.420 280.000,385.600 279.460,385.600 278.800 C 385.600 278.140,385.780 277.600,386.000 277.600 C 386.220 277.600,386.400 277.240,386.400 276.800 C 386.400 276.360,386.580 276.000,386.800 276.000 C 387.020 276.000,387.200 275.460,387.200 274.800 C 387.200 274.140,387.380 273.600,387.600 273.600 C 387.820 273.600,388.000 273.150,388.000 272.600 C 388.000 272.050,388.180 271.600,388.400 271.600 C 388.620 271.600,388.800 271.238,388.800 270.795 C 388.800 270.352,388.970 269.677,389.178 269.295 C 389.910 267.948,391.280 262.974,391.497 260.872 C 391.638 259.509,391.838 258.933,392.053 259.272 C 392.263 259.603,392.390 259.158,392.394 258.076 C 392.398 257.031,392.557 256.450,392.800 256.600 C 393.039 256.747,393.200 256.263,393.200 255.400 C 393.200 254.537,393.361 254.053,393.600 254.200 C 393.841 254.349,394.000 253.812,394.000 252.847 C 394.000 251.967,394.180 251.136,394.400 251.000 C 394.620 250.864,394.803 249.908,394.806 248.876 C 394.811 247.517,394.919 247.165,395.200 247.600 C 395.478 248.030,395.589 247.603,395.594 246.100 C 395.597 244.945,395.780 244.000,396.000 244.000 C 396.220 244.000,396.400 243.201,396.400 242.224 C 396.400 241.247,396.580 240.336,396.800 240.200 C 397.020 240.064,397.200 239.053,397.200 237.953 C 397.200 236.721,397.354 236.048,397.600 236.200 C 397.850 236.354,398.000 235.545,398.000 234.047 C 398.000 232.727,398.180 231.536,398.400 231.400 C 398.620 231.264,398.800 230.973,398.800 230.753 C 398.800 230.533,398.620 230.464,398.400 230.600 C 398.180 230.736,398.000 230.657,398.000 230.424 C 398.000 230.191,398.180 230.000,398.400 230.000 C 398.622 230.000,398.800 228.944,398.800 227.633 C 398.800 226.096,398.975 225.208,399.300 225.100 C 400.032 224.856,400.032 175.144,399.300 174.900 C 398.985 174.795,398.800 173.960,398.800 172.647 C 398.800 171.499,398.575 170.318,398.300 170.021 C 397.900 169.590,397.900 169.539,398.300 169.765 C 398.607 169.938,398.800 169.806,398.800 169.424 C 398.800 169.081,398.620 168.800,398.400 168.800 C 398.174 168.800,398.000 167.667,398.000 166.200 C 398.000 164.733,397.826 163.600,397.600 163.600 C 397.380 163.600,397.200 162.689,397.200 161.576 C 397.200 160.329,397.047 159.648,396.800 159.800 C 396.554 159.952,396.400 159.282,396.400 158.057 C 396.400 156.962,396.229 156.007,396.020 155.933 C 395.811 155.860,395.595 155.023,395.540 154.074 C 395.485 153.125,395.296 152.260,395.120 152.151 C 394.944 152.042,394.800 151.243,394.800 150.376 C 394.800 149.509,394.620 148.800,394.400 148.800 C 394.180 148.800,394.000 148.080,394.000 147.200 C 394.000 146.320,393.820 145.600,393.600 145.600 C 393.380 145.600,393.200 145.071,393.200 144.424 C 393.200 143.777,393.020 143.136,392.800 143.000 C 392.580 142.864,392.400 142.223,392.400 141.576 C 392.400 140.929,392.243 140.400,392.052 140.400 C 391.860 140.400,391.586 139.518,391.443 138.440 C 391.096 135.822,389.640 131.234,388.353 128.705 C 388.159 128.323,388.000 127.648,388.000 127.205 C 388.000 126.762,387.820 126.400,387.600 126.400 C 387.380 126.400,387.200 125.860,387.200 125.200 C 387.200 124.540,387.020 124.000,386.800 124.000 C 386.580 124.000,386.400 123.640,386.400 123.200 C 386.400 122.760,386.220 122.400,386.000 122.400 C 385.780 122.400,385.600 121.939,385.600 121.376 C 385.600 120.796,385.427 120.460,385.200 120.600 C 384.967 120.744,384.800 120.345,384.800 119.647 C 384.800 118.987,384.620 118.336,384.400 118.200 C 384.180 118.064,384.000 117.513,384.000 116.976 C 384.000 116.439,383.820 116.000,383.600 116.000 C 383.380 116.000,383.200 115.640,383.200 115.200 C 383.200 114.760,383.020 114.400,382.800 114.400 C 382.580 114.400,382.400 114.040,382.400 113.600 C 382.400 113.160,382.220 112.800,382.000 112.800 C 381.780 112.800,381.600 112.350,381.600 111.800 C 381.600 111.250,381.420 110.800,381.200 110.800 C 380.980 110.800,380.800 110.440,380.800 110.000 C 380.800 109.560,380.620 109.200,380.400 109.200 C 380.180 109.200,380.000 108.840,380.000 108.400 C 380.000 107.960,379.820 107.600,379.600 107.600 C 379.380 107.600,379.200 107.240,379.200 106.800 C 379.200 106.360,379.020 106.000,378.800 106.000 C 378.580 106.000,378.400 105.640,378.400 105.200 C 378.400 104.760,378.220 104.400,378.000 104.400 C 377.780 104.400,377.600 104.040,377.600 103.600 C 377.600 103.160,377.420 102.800,377.200 102.800 C 376.980 102.800,376.800 102.440,376.800 102.000 C 376.800 101.560,376.620 101.200,376.400 101.200 C 376.180 101.200,376.000 100.840,376.000 100.400 C 376.000 99.071,375.307 99.502,375.025 101.007 M249.178 102.300 L 247.800 103.800 249.300 102.422 C 250.696 101.138,250.984 100.800,250.678 100.800 C 250.612 100.800,249.937 101.475,249.178 102.300 M150.581 113.700 L 149.000 115.400 150.700 113.819 C 152.281 112.348,152.584 112.000,152.281 112.000 C 152.216 112.000,151.451 112.765,150.581 113.700 M281.342 115.800 C 281.341 117.780,281.408 118.640,281.492 117.712 C 281.576 116.784,281.577 115.164,281.495 114.112 C 281.412 113.060,281.343 113.820,281.342 115.800 M249.000 129.200 C 249.859 130.080,250.652 130.800,250.762 130.800 C 250.872 130.800,250.259 130.080,249.400 129.200 C 248.541 128.320,247.748 127.600,247.638 127.600 C 247.528 127.600,248.141 128.320,249.000 129.200 M261.100 134.689 C 261.815 134.778,262.985 134.778,263.700 134.689 C 264.415 134.601,263.830 134.528,262.400 134.528 C 260.970 134.528,260.385 134.601,261.100 134.689 M177.500 187.500 C 183.055 187.562,192.145 187.562,197.700 187.500 C 203.255 187.437,198.710 187.386,187.600 187.386 C 176.490 187.386,171.945 187.437,177.500 187.500 M165.767 187.988 C 164.080 188.670,161.781 192.314,162.552 193.085 C 162.688 193.222,162.801 192.988,162.801 192.567 C 162.804 191.268,164.290 189.277,165.883 188.436 C 167.403 187.634,167.331 187.355,165.767 187.988 M209.240 188.453 C 211.009 189.479,212.094 191.227,212.435 193.600 L 212.693 195.400 212.747 193.835 C 212.813 191.880,211.231 189.043,209.604 188.202 C 207.863 187.302,207.585 187.494,209.240 188.453 M212.000 195.903 C 212.000 196.675,209.932 198.824,208.647 199.388 C 207.961 199.689,207.659 199.949,207.975 199.967 C 209.362 200.046,212.972 196.438,212.239 195.706 C 212.108 195.574,212.000 195.663,212.000 195.903 M163.209 197.030 C 163.198 197.545,164.655 198.922,165.874 199.550 C 167.376 200.324,167.469 200.038,166.000 199.161 C 165.230 198.701,164.289 197.937,163.909 197.463 C 163.529 196.988,163.214 196.794,163.209 197.030 " stroke="none" fill="#fcb44c" fill-rule="evenodd"></path><path id="path4" d="M227.900 75.082 C 228.395 75.178,229.205 75.178,229.700 75.082 C 230.195 74.987,229.790 74.909,228.800 74.909 C 227.810 74.909,227.405 74.987,227.900 75.082 M243.701 115.800 C 243.705 116.680,243.787 116.993,243.883 116.495 C 243.979 115.998,243.975 115.278,243.875 114.895 C 243.775 114.513,243.696 114.920,243.701 115.800 M165.822 188.507 C 161.567 190.917,161.628 196.695,165.935 199.115 C 167.941 200.243,205.843 200.528,208.451 199.435 C 213.289 197.408,213.726 190.992,209.198 188.447 C 206.774 187.085,168.239 187.138,165.822 188.507 " stroke="none" fill="#ec5454" fill-rule="evenodd"></path></g></svg>