<?xml version="1.0" encoding="utf-8"?>
<!-- Svg Vector Icons : http://www.onlinewebfonts.com/icon -->
<!DOCTYPE svg PUBLIC "-//W3C//DTD SVG 1.1//EN" "http://www.w3.org/Graphics/SVG/1.1/DTD/svg11.dtd">
<svg version="1.1" xmlns="http://www.w3.org/2000/svg" xmlns:xlink="http://www.w3.org/1999/xlink" x="0px" y="0px" viewBox="0 0 1000 1000" enable-background="new 0 0 1000 1000" xml:space="preserve">
<metadata> Svg Vector Icons : http://www.onlinewebfonts.com/icon </metadata>
<g><g transform="matrix(1 0 0 -1 0 1008)"><path d="M389.2,177.4h147.8v246.9c0,16.9,1.6,28.8,4.9,36c14.9,36.3,40.2,54.4,75.8,54.4c49.9,0,74.9-33.4,74.9-100.1V177.4h148.8v253.8c0,65.5-15.7,115-47.2,148.8c-31.4,33.7-72.8,50.6-124,50.6c-57,0-101.8-25-134.2-74.9h1v64.2H389.2C390.5,591.9,390.5,444.5,389.2,177.4z M232.6,681.1c25.9,0,46.5,7.1,61.7,21.4s22.8,32.4,22.8,54.4c-0.6,22.7-8.4,41.2-23.3,55.4c-14.9,14.3-35,21.4-60.3,21.4c-24.6,0-44.7-7.3-60.3-21.9c-15.6-14.6-23.3-32.9-23.3-54.9s7.5-40.2,22.4-54.4c14.9-14.3,34.7-21.4,59.3-21.4H232.6z M158.8,177.4h148.8v442.4H158.8V177.4z M10,88v840c0,19.4,7,36,20.9,49.6c13.9,13.6,30.9,20.4,51,20.4h836.1c20.1,0,37.1-6.8,51-20.4C983,964,990,947.4,990,928V88c0-19.4-7-36-20.9-49.6c-13.9-13.6-30.9-20.4-51-20.4H81.9c-20.1,0-37.1,6.8-51,20.4C17,52,10,68.6,10,88z"/></g></g>
</svg>